<svg width="115" height="114" viewBox="0 0 115 114" fill="none" xmlns="http://www.w3.org/2000/svg">
<rect x="0.5" width="114" height="114" rx="57" fill="#0070F3"/>
<path fill-rule="evenodd" clip-rule="evenodd" d="M48.9477 61.5128H59.0702C58.4877 63.0539 57.6301 64.4912 56.5256 65.7498C54.3089 68.2756 51.2492 69.9091 47.917 70.3456C44.5848 70.782 41.2076 69.9917 38.4151 68.122C35.6226 66.2523 33.6055 63.4309 32.7399 60.1837C31.8743 56.9366 32.2193 53.4855 33.7105 50.474C35.2018 47.4624 37.7375 45.096 40.8448 43.8161C43.9522 42.5361 47.419 42.4299 50.5989 43.5173C52.5319 44.1783 54.2786 45.2529 55.727 46.6487C55.84 46.7576 55.9895 46.8204 56.1465 46.8204H61.107C61.4351 46.8204 61.7003 46.5537 61.699 46.2256L61.6843 42.4733C61.6822 41.9466 61.0487 41.6876 60.6808 42.0645C60.5981 42.1492 60.5123 42.2369 60.4172 42.3335C60.1875 42.5667 59.8124 42.5657 59.5742 42.3412C57.5536 40.437 55.1355 38.968 52.4668 38.0554C47.9612 36.5147 43.0489 36.6651 38.6461 38.4788C34.2432 40.2924 30.6503 43.6454 28.5373 47.9125C26.4243 52.1797 25.9355 57.0696 27.162 61.6705C28.3885 66.2714 31.2466 70.2693 35.2033 72.9185C39.16 75.5677 43.9453 76.6875 48.6668 76.0691C53.3883 75.4506 57.7236 73.1361 60.8645 69.5572C61.082 69.3093 61.2882 69.0634 61.4834 68.8188C62.0313 69.778 62.6883 70.6775 63.4454 71.498C63.6673 71.7385 64.0434 71.7377 64.2748 71.5064L67.5218 68.2595C67.7532 68.0282 67.7515 67.6543 67.536 67.4081C66.3106 66.0086 65.549 64.2572 65.3657 62.3963C65.3366 62.1016 65.3224 61.8067 65.3226 61.5128H71.8169C72.4387 61.5128 72.6407 60.6771 72.0874 60.3932L66.3134 57.43C66.4679 57.1298 66.6399 56.8373 66.8291 56.5543C67.978 54.8348 69.6877 53.5669 71.6667 52.9666C73.6457 52.3663 75.7716 52.4708 77.6823 53.2622C79.5929 54.0535 81.17 55.4829 82.1449 57.3066C83.1197 59.1304 83.4321 61.2358 83.0286 63.264C82.6251 65.2922 81.5309 67.1178 79.9323 68.4297C78.4867 69.6159 76.7097 70.3158 74.8536 70.439C74.5271 70.4607 74.2615 70.7239 74.2615 71.0511V75.6428C74.2615 75.97 74.5269 76.2365 74.8539 76.2233C78.0473 76.0947 81.1183 74.9293 83.5971 72.8951C86.2289 70.7353 88.0303 67.7299 88.6945 64.3909C89.3587 61.052 88.8446 57.586 87.2397 54.5835C85.6348 51.5811 83.0384 49.228 79.893 47.9252C76.7476 46.6224 73.2477 46.4505 69.9897 47.4387C66.7317 48.427 63.9172 50.5143 62.0258 53.3449C61.7131 53.8128 61.4289 54.2961 61.1738 54.7924L52.8071 50.4986C52.5773 50.3807 52.2976 50.4252 52.1158 50.6087L50.5313 52.207C50.235 52.506 50.3362 53.01 50.725 53.1713L59.4937 56.8098C59.6798 56.887 59.5876 57.1669 59.392 57.1184L48.6794 54.4615C48.4782 54.4116 48.2655 54.4705 48.1186 54.6168L45.1759 57.5487C44.8229 57.9004 45.0352 58.5041 45.5306 58.5574L47.8262 58.8046C48.1271 58.837 48.3552 59.091 48.3552 59.3936V60.9203C48.3552 61.2475 48.6205 61.5128 48.9477 61.5128Z" fill="white"/>
</svg>
