<svg width="41" height="41" viewBox="0 0 41 41" fill="none" xmlns="http://www.w3.org/2000/svg">
<g id="Frame 504">
<rect width="41" height="41" rx="8" fill="#0070F3"/>
<path id="Union" fill-rule="evenodd" clip-rule="evenodd" d="M16.4195 23.2457H21.1181C20.8477 23.9528 20.4496 24.6122 19.9369 25.1896C18.908 26.3483 17.4878 27.0977 15.9411 27.298C14.3944 27.4982 12.8268 27.1356 11.5306 26.2779C10.2344 25.4201 9.29814 24.1257 8.89635 22.636C8.49456 21.1463 8.6547 19.5631 9.34689 18.1815C10.0391 16.7999 11.2161 15.7142 12.6584 15.127C14.1008 14.5398 15.71 14.4911 17.1859 14.9899C18.0832 15.2932 18.8939 15.7862 19.5662 16.4265C19.6187 16.4765 19.6881 16.5053 19.761 16.5053H22.0635C22.2158 16.5053 22.3389 16.383 22.3383 16.2324L22.3314 14.511C22.3305 14.2694 22.0364 14.1505 21.8657 14.3234C21.8273 14.3623 21.7874 14.4025 21.7433 14.4468C21.6367 14.5538 21.4626 14.5534 21.352 14.4504C20.4141 13.5768 19.2917 12.9029 18.053 12.4842C15.9616 11.7773 13.6815 11.8464 11.6378 12.6784C9.59415 13.5105 7.92643 15.0487 6.94564 17.0064C5.96486 18.964 5.73796 21.2073 6.30726 23.3181C6.87656 25.4289 8.2032 27.263 10.0398 28.4784C11.8764 29.6937 14.0976 30.2075 16.2891 29.9237C18.4807 29.64 20.493 28.5782 21.9509 26.9363C22.0519 26.8226 22.1476 26.7097 22.2382 26.5975C22.4925 27.0376 22.7975 27.4502 23.1489 27.8267C23.2519 27.937 23.4265 27.9367 23.5339 27.8305L25.041 26.341C25.1484 26.2348 25.1477 26.0633 25.0476 25.9503C24.4788 25.3083 24.1253 24.5048 24.0402 23.6511C24.0267 23.5159 24.0201 23.3806 24.0202 23.2457H27.0347C27.3233 23.2457 27.417 22.8624 27.1602 22.7321L24.4801 21.3727C24.5518 21.235 24.6317 21.1008 24.7195 20.9709C25.2528 20.1821 26.0464 19.6004 26.9649 19.325C27.8835 19.0496 28.8703 19.0975 29.7572 19.4606C30.644 19.8237 31.3761 20.4794 31.8286 21.3161C32.2811 22.1528 32.4261 23.1187 32.2388 24.0491C32.0515 24.9796 31.5436 25.8172 30.8016 26.419C30.1306 26.9632 29.3057 27.2843 28.4442 27.3408C28.2926 27.3508 28.1694 27.4715 28.1694 27.6216V29.7282C28.1694 29.8783 28.2926 30.0006 28.4443 29.9945C29.9266 29.9355 31.3521 29.4009 32.5027 28.4676C33.7243 27.4768 34.5604 26.098 34.8687 24.5662C35.177 23.0343 34.9384 21.4442 34.1934 20.0668C33.4485 18.6894 32.2433 17.6099 30.7833 17.0122C29.3233 16.4145 27.6988 16.3356 26.1866 16.789C24.6743 17.2424 23.3679 18.2 22.4899 19.4986C22.3448 19.7132 22.2129 19.935 22.0945 20.1626L18.2109 18.1928C18.1043 18.1387 17.9744 18.1591 17.89 18.2433L17.1546 18.9765C17.017 19.1137 17.064 19.3449 17.2445 19.4189L21.3146 21.0881C21.401 21.1236 21.3582 21.252 21.2674 21.2297L16.295 20.0108C16.2016 19.9879 16.1028 20.015 16.0347 20.0821L14.6687 21.4271C14.5049 21.5885 14.6035 21.8655 14.8334 21.8899L15.8989 22.0033C16.0386 22.0182 16.1445 22.1347 16.1445 22.2735V22.9739C16.1445 23.124 16.2676 23.2457 16.4195 23.2457Z" fill="white"/>
</g>
</svg>
