<svg width="109" height="24" viewBox="0 0 109 24" fill="none" xmlns="http://www.w3.org/2000/svg">
<path fill-rule="evenodd" clip-rule="evenodd" d="M13.6693 14.9268H19.8333C19.4785 15.8652 18.9563 16.7405 18.2837 17.5068C16.9339 19.0449 15.0707 20.0396 13.0416 20.3054C11.0125 20.5712 8.956 20.0899 7.25555 18.9514C5.5551 17.8129 4.3268 16.0948 3.7997 14.1175C3.2726 12.1402 3.48267 10.0387 4.39076 8.20482C5.29884 6.37098 6.84294 4.92999 8.73512 4.15056C10.6273 3.37112 12.7384 3.30646 14.6747 3.96862C15.8518 4.37113 16.9154 5.0255 17.7974 5.87547C17.8663 5.9418 17.9573 5.98 18.0529 5.98H21.0735C21.2733 5.98 21.4348 5.81762 21.434 5.61782L21.4251 3.3329C21.4238 3.01217 21.0381 2.85443 20.814 3.08394C20.7636 3.13556 20.7114 3.18895 20.6535 3.24775C20.5136 3.38976 20.2852 3.38916 20.1402 3.25245C18.9097 2.0929 17.4372 1.19839 15.8122 0.642688C13.0686 -0.295539 10.0773 -0.203912 7.39621 0.900485C4.71514 2.00488 2.52727 4.04665 1.24058 6.64507C-0.0461063 9.24348 -0.343771 12.2212 0.403093 15.0228C1.14996 17.8245 2.89036 20.2589 5.29977 21.8722C7.70918 23.4854 10.6231 24.1673 13.4982 23.7907C16.3733 23.4141 19.0133 22.0047 20.9259 19.8253C21.0583 19.6744 21.1838 19.5246 21.3027 19.3757C21.6364 19.9598 22.0365 20.5075 22.4975 21.0072C22.6326 21.1536 22.8616 21.1532 23.0025 21.0123L24.9798 19.0351C25.1207 18.8942 25.1196 18.6666 24.9884 18.5167C24.2422 17.6645 23.7784 16.598 23.6668 15.4648C23.6491 15.2853 23.6404 15.1058 23.6406 14.9268H27.5952C27.9739 14.9268 28.0968 14.4179 27.7599 14.245L24.2439 12.4406C24.338 12.2578 24.4427 12.0797 24.5579 11.9073C25.2576 10.8603 26.2986 10.0882 27.5037 9.7227C28.7088 9.35716 30.0034 9.42076 31.1668 9.90265C32.3303 10.3845 33.2907 11.2549 33.8843 12.3655C34.4779 13.4761 34.6681 14.7581 34.4224 15.9932C34.1768 17.2282 33.5104 18.3399 32.537 19.1387C31.6567 19.8611 30.5746 20.2873 29.4443 20.3623C29.2455 20.3755 29.0838 20.5358 29.0838 20.735V23.5311C29.0838 23.7303 29.2454 23.8926 29.4445 23.8846C31.3891 23.8063 33.2592 23.0966 34.7686 21.8579C36.3712 20.5428 37.4682 18.7126 37.8726 16.6794C38.2771 14.6462 37.964 12.5356 36.9867 10.7073C36.0094 8.87901 34.4284 7.44613 32.513 6.6528C30.5977 5.85947 28.4665 5.75477 26.4826 6.35655C24.4987 6.95834 22.7848 8.22936 21.633 9.95306C21.4426 10.2379 21.2696 10.5323 21.1142 10.8345L16.0194 8.21984C15.8795 8.14803 15.7091 8.17514 15.5984 8.28683L14.6336 9.26014C14.4531 9.44219 14.5148 9.74909 14.7516 9.84733L20.0911 12.0629C20.2044 12.11 20.1483 12.2804 20.0292 12.2509L13.5059 10.633C13.3834 10.6026 13.2538 10.6385 13.1644 10.7276L11.3725 12.5129C11.1575 12.727 11.2868 13.0947 11.5885 13.1272L12.9863 13.2776C13.1696 13.2974 13.3085 13.452 13.3085 13.6363V14.566C13.3085 14.7652 13.47 14.9268 13.6693 14.9268Z" fill="#0070F3"/>
<path d="M105.499 23.9124V0H109V23.9124H105.499Z" fill="black"/>
<path d="M93.8296 23.9124C92.1625 23.9124 90.678 23.5349 89.3763 22.7801C88.0974 22.0024 87.0926 20.9388 86.3618 19.5892C85.631 18.2397 85.2656 16.6843 85.2656 14.923C85.2656 13.1617 85.631 11.6063 86.3618 10.2567C87.1154 8.90718 88.1317 7.85499 89.4106 7.10016C90.7123 6.32245 92.1967 5.93359 93.8638 5.93359C95.4167 5.93359 96.7984 6.33388 98.0088 7.13447C99.2191 7.91217 100.167 9.03299 100.852 10.4969C101.537 11.9608 101.88 13.6878 101.88 15.6778H88.1774L88.7597 15.1632C88.7597 16.3526 88.9881 17.3705 89.4448 18.2168C89.9244 19.0631 90.5639 19.715 91.3632 20.1725C92.1625 20.6071 93.0645 20.8244 94.0694 20.8244C95.1884 20.8244 96.1133 20.5728 96.8441 20.0696C97.5977 19.5435 98.18 18.8801 98.5911 18.0796L101.571 19.4177C101.115 20.3326 100.521 21.1332 99.7901 21.8194C99.0593 22.4828 98.1915 22.9974 97.1866 23.3634C96.2046 23.7294 95.0856 23.9124 93.8296 23.9124ZM88.9652 13.4819L88.3486 13.0016H98.8309L98.2143 13.5162C98.2143 12.5098 98.0088 11.6749 97.5977 11.0116C97.1866 10.3254 96.65 9.79926 95.9877 9.43328C95.3254 9.0673 94.5946 8.88431 93.7953 8.88431C93.0188 8.88431 92.2538 9.0673 91.5002 9.43328C90.7694 9.79926 90.1642 10.3254 89.6846 11.0116C89.205 11.6749 88.9652 12.4984 88.9652 13.4819Z" fill="black"/>
<path d="M75.7811 14.3458C75.7811 12.4182 76.1486 10.8476 76.8834 9.63393C77.642 8.39647 78.6021 7.48027 79.7637 6.88533C80.9253 6.2904 82.1461 5.99293 83.4262 5.99293V9.38406C82.3595 9.38406 81.3401 9.53874 80.3682 9.84811C79.42 10.1575 78.6377 10.6691 78.0213 11.383C77.4287 12.097 77.1323 13.0608 77.1323 14.2744L75.7811 14.3458ZM73.5765 23.9124V5.93359H77.1323V23.9124H73.5765Z" fill="black"/>
<path d="M67.1281 23.9113C65.3271 23.9113 63.9471 23.4552 62.9881 22.543C62.0291 21.6308 61.5496 20.3327 61.5496 18.6486V0H65.0581V18.0872C65.0581 18.9293 65.2686 19.5725 65.6896 20.0169C66.1106 20.4613 66.7188 20.6835 67.514 20.6835C67.7479 20.6835 68.0052 20.6367 68.2859 20.5432C68.5666 20.4496 68.9057 20.2625 69.3033 19.9818L70.5664 22.7184C69.9816 23.1161 69.3969 23.4084 68.8122 23.5956C68.2508 23.8061 67.6894 23.9113 67.1281 23.9113ZM58.6025 8.96521V5.94791H69.9699V8.96521H58.6025Z" fill="black"/>
<path d="M40.5858 23.897V5.93359H43.8837L44.0942 9.58241V23.897H40.5858ZM52.6549 23.897V14.9153H56.1634V23.897H52.6549ZM52.6549 14.9153C52.6549 13.395 52.4795 12.2255 52.1286 11.4068C51.7778 10.5882 51.2866 10.0268 50.6551 9.72275C50.0236 9.39529 49.3102 9.21987 48.5149 9.19648C47.1115 9.19648 46.0239 9.68766 45.252 10.67C44.4802 11.629 44.0942 12.9973 44.0942 14.775H42.6558C42.6558 12.9038 42.9247 11.3133 43.4627 10.0034C44.0007 8.6936 44.7725 7.68783 45.7783 6.98614C46.8075 6.28444 48.0237 5.93359 49.4271 5.93359C50.8071 5.93359 52 6.21427 53.0058 6.77563C54.0115 7.33699 54.7834 8.2141 55.3214 9.40699C55.8827 10.5765 56.1634 12.1202 56.1634 14.0382V14.9153H52.6549Z" fill="black"/>
</svg>
