<svg width="30" height="35" viewBox="0 0 30 35" fill="none" xmlns="http://www.w3.org/2000/svg">
<path d="M12.7252 6.88603C13.2285 5.93246 13.6142 5.02134 14.1535 4.21473C15.9969 1.44545 19.1804 0.553939 22.2168 1.92225C24.4361 2.92154 26.0572 4.58048 27.2535 6.66397C28.5674 8.94666 29.4793 11.3894 29.8617 13.9986C30.4631 18.1003 29.0642 19.3119 26.4135 20.7324C24.4622 21.7807 22.8215 23.0902 21.7102 24.9484C20.21 27.4629 18.8797 30.0787 17.4645 32.6455C17.1801 33.1615 16.8859 33.6873 16.5035 34.1314C15.5066 35.2874 14.5621 35.2483 13.4671 34.2588C8.10685 29.3929 5.05411 23.087 2.35763 16.5622C1.08293 13.4794 0.164477 10.2758 0.0141274 6.92849C-0.0447049 5.64835 0.0762388 4.29637 0.452112 3.07828C1.29538 0.348195 3.81864 -0.70335 6.42687 0.482083C8.91744 1.61527 10.6857 3.55181 12.1009 5.84104C12.3036 6.16107 12.4931 6.49089 12.7252 6.88603ZM13.1958 27.796C13.3037 27.4662 13.3854 27.218 13.4671 26.9666C14.3758 24.1124 15.7126 21.4803 17.5789 19.1322C19.3765 16.8691 21.5304 15.122 24.4492 14.5211C24.5243 14.5048 24.5864 14.4199 24.7237 14.3154C24.3217 12.6173 23.6876 10.9779 22.5992 9.59979C21.9226 8.74092 21.0336 7.9833 20.1021 7.40201C19.0595 6.75215 18.0822 6.99381 17.3631 7.99963C16.7323 8.88462 16.2453 9.87737 15.7747 10.8636C15.4315 11.582 15.2452 12.3756 14.9379 13.1104C14.6438 13.8158 14.1078 14.2762 13.3037 14.2795C12.5422 14.2827 12.0159 13.8648 11.6924 13.2051C11.4963 12.8067 11.3524 12.3854 11.1988 11.9674C10.2052 9.25363 8.46311 7.13748 6.06079 5.55691C5.63262 5.27606 5.1489 5.08012 4.68805 4.845C4.19124 5.94226 4.11278 7.31383 4.42982 9.35487C5.49861 16.2291 8.73113 22.104 12.8788 27.5478C12.9344 27.6132 13.0161 27.6556 13.1958 27.796Z" fill="#0070F3"/>
</svg>
