<svg width="55" height="13" viewBox="0 0 55 13" fill="none" xmlns="http://www.w3.org/2000/svg">
<path d="M28.6308 7.45719C29.4408 6.59368 30.084 5.80592 30.8344 5.1242C32.2677 3.82515 33.6693 2.4655 35.2575 1.3596C37.3698 -0.113667 39.4781 0.246125 41.2211 2.11328C41.3879 2.29128 41.5467 2.48066 41.7015 2.67003C43.1349 4.39326 43.8972 4.64321 46.069 3.84409C47.2046 3.42748 48.2726 2.82909 49.3565 2.29129C50.7105 1.62094 52.0842 1.31036 53.454 2.17765C54.8238 3.04495 55.1732 4.41596 54.9271 5.82106C54.7166 7.01785 54.1886 8.17301 53.732 9.32057C53.5057 9.88488 52.9935 9.99093 52.521 9.55917C51.9016 8.99486 51.3378 8.36994 50.6469 7.67307C50.2936 7.85107 49.8647 8.07453 49.432 8.2904C47.3872 9.31677 45.2511 9.96819 42.8966 9.73716C40.2126 9.47584 38.279 8.13512 36.8854 5.77561C36.1945 6.41946 35.5592 6.95726 34.9915 7.55187C33.8281 8.77518 32.768 10.0856 31.5531 11.2597C29.1351 13.5927 26.3597 13.5813 23.9735 11.218C23.0047 10.2598 22.1868 9.14633 21.3927 8.04801C20.8765 7.33599 20.4398 7.30948 19.733 7.78668C18.3235 8.74109 16.9299 9.75231 15.4053 10.5174C13.6344 11.4036 11.7882 12.2671 9.8665 12.7519C6.63853 13.5624 3.60112 12.2595 2.1519 9.40388C1.19106 7.51022 0.563742 5.42719 0.0594959 3.36688C-0.377253 1.58684 1.67547 0.174175 3.43835 1.0339C4.27214 1.43914 4.96299 2.26099 5.51091 3.02603C6.15412 3.92742 6.56705 4.9765 7.09909 5.94984C7.54775 6.76411 8.25449 7.00271 9.08431 6.54066C10.2913 5.86652 11.4825 5.14692 12.6299 4.38567C14.1982 3.34794 15.6475 2.12844 17.2793 1.20054C21.1902 -1.02641 24.5095 -0.128822 26.721 3.67365C27.4079 4.83636 27.9439 6.08239 28.6308 7.45719Z" fill="black"/>
</svg>
